<svg xmlns="http://www.w3.org/2000/svg" viewBox="0 0 64 64">
  <title>Badge Beadgrid</title>
  <path fill="#f27059" fill-rule="evenodd" d="M11 1a10 10 0 1 0 0 20 10 10 0 0 0 0-20Zm0 7a3 3 0 1 0 0 6 3 3 0 0 0 0-6Z"/>
  <path fill="#f9dc5c" fill-rule="evenodd" d="M32 9a10 10 0 1 0 0 20 10 10 0 0 0 0-20Zm0 7a3 3 0 1 0 0 6 3 3 0 0 0 0-6Z"/>
  <path fill="#67d5b5" fill-rule="evenodd" d="M53 1a10 10 0 1 0 0 20 10 10 0 0 0 0-20Zm0 7a3 3 0 1 0 0 6 3 3 0 0 0 0-6Z"/>
  <path fill="#8a5cf5" fill-rule="evenodd" d="M21 35a10 10 0 1 0 0 20 10 10 0 0 0 0-20Zm0 7a3 3 0 1 0 0 6 3 3 0 0 0 0-6Z"/>
  <path fill="#1597bb" fill-rule="evenodd" d="M42 27a10 10 0 1 0 0 20 10 10 0 0 0 0-20Zm0 7a3 3 0 1 0 0 6 3 3 0 0 0 0-6Z"/>
</svg>
